{
  "accessors": [
    {
      "bufferView": 2,
      "componentType": 5126,
      "count": 46757,
      "max": [
        178.7843017578125,
        129.14300537109375,
        346.36920166015625
      ],
      "min": [
        -178.7843017578125,
        -81.390937805175781,
        -422.07540893554688
      ],
      "type": "VEC3"
    },
    {
      "bufferView": 2,
      "byteOffset": 561084,
      "componentType": 5126,
      "count": 46757,
      "max": [
        1,
        0.99999964237213135,
        1
      ],
      "min": [
        -1,
        -0.9999997615814209,
        -1
      ],
      "type": "VEC3"
    },
    {
      "bufferView": 3,
      "componentType": 5126,
      "count": 46757,
      "max": [
        1,
        1,
        0.99999338388442993,
        1
      ],
      "min": [
        -1,
        -1,
        -0.99999099969863892,
        -1
      ],
      "type": "VEC4"
    },
    {
      "bufferView": 1,
      "componentType": 5126,
      "count": 46757,
      "max": [
        0.99645501375198364,
        0.99951201677322388
      ],
      "min": [
        0.00048799999058246613,
        0.00048799999058246613
      ],
      "type": "VEC2"
    },
    {
      "bufferView": 1,
      "byteOffset": 374056,
      "componentType": 5126,
      "count": 46757,
      "max": [
        0.99645501375198364,
        0.99951201677322388
      ],
      "min": [
        0.00048799999058246613,
        0.00048799999058246613
      ],
      "type": "VEC2"
    },
    {
      "bufferView": 1,
      "byteOffset": 748112,
      "componentType": 5126,
      "count": 46757,
      "max": [
        0.99645501375198364,
        0.99951201677322388
      ],
      "min": [
        0.00048799999058246613,
        0.00048799999058246613
      ],
      "type": "VEC2"
    },
    {
      "bufferView": 1,
      "byteOffset": 1122168,
      "componentType": 5126,
      "count": 46757,
      "max": [
        0.99645501375198364,
        0.99951201677322388
      ],
      "min": [
        0.00048799999058246613,
        0.00048799999058246613
      ],
      "type": "VEC2"
    },
    {
      "bufferView": 1,
      "byteOffset": 1496224,
      "componentType": 5126,
      "count": 46757,
      "max": [
        0.99645501375198364,
        0.99951201677322388
      ],
      "min": [
        0.00048799999058246613,
        0.00048799999058246613
      ],
      "type": "VEC2"
    },
    {
      "bufferView": 1,
      "byteOffset": 1870280,
      "componentType": 5126,
      "count": 46757,
      "max": [
        0.99645501375198364,
        0.99951201677322388
      ],
      "min": [
        0.00048799999058246613,
        0.00048799999058246613
      ],
      "type": "VEC2"
    },
    {
      "bufferView": 0,
      "componentType": 5125,
      "count": 203670,
      "max": [
        46756
      ],
      "min": [
        0
      ],
      "type": "SCALAR"
    }
  ],
  "asset": {
    "extras": {
      "author": "MatiasMyma (https://sketchfab.com/MatiasMyma)",
      "license": "CC-BY-4.0 (http://creativecommons.org/licenses/by/4.0/)",
      "source": "https://sketchfab.com/3d-models/practica-texturizado-con-substance-painter-8046a0c79e2a4bd5b82b57ae1e09645c",
      "title": "Practica - Texturizado con Substance Painter"
    },
    "generator": "Sketchfab-8.47.0",
    "version": "2.0"
  },
  "bufferViews": [
    {
      "buffer": 0,
      "byteLength": 814680,
      "byteOffset": 0,
      "name": "floatBufferViews",
      "target": 34963
    },
    {
      "buffer": 0,
      "byteLength": 2244336,
      "byteOffset": 814680,
      "byteStride": 8,
      "name": "floatBufferViews",
      "target": 34962
    },
    {
      "buffer": 0,
      "byteLength": 1122168,
      "byteOffset": 3059016,
      "byteStride": 12,
      "name": "floatBufferViews",
      "target": 34962
    },
    {
      "buffer": 0,
      "byteLength": 748112,
      "byteOffset": 4181184,
      "byteStride": 16,
      "name": "floatBufferViews",
      "target": 34962
    }
  ],
  "buffers": [
    {
      "byteLength": 4929296,
      "uri": "scene.bin"
    }
  ],
  "images": [
    {
      "uri": "textures/StingrayPBS1_baseColor.png"
    },
    {
      "uri": "textures/StingrayPBS1_metallicRoughness.png"
    },
    {
      "uri": "textures/StingrayPBS1_emissive.png"
    },
    {
      "uri": "textures/StingrayPBS1_normal.png"
    }
  ],
  "materials": [
    {
      "doubleSided": true,
      "emissiveFactor": [
        1,
        1,
        1
      ],
      "emissiveTexture": {
        "index": 2,
        "texCoord": 2
      },
      "name": "StingrayPBS1",
      "normalTexture": {
        "index": 3,
        "scale": 1,
        "texCoord": 3
      },
      "occlusionTexture": {
        "index": 1,
        "strength": 1,
        "texCoord": 0
      },
      "pbrMetallicRoughness": {
        "baseColorFactor": [
          1,
          1,
          1,
          1
        ],
        "baseColorTexture": {
          "index": 0,
          "texCoord": 0
        },
        "metallicFactor": 1,
        "metallicRoughnessTexture": {
          "index": 1,
          "texCoord": 1
        },
        "roughnessFactor": 1
      }
    }
  ],
  "meshes": [
    {
      "name": "pCube380_StingrayPBS1_0",
      "primitives": [
        {
          "attributes": {
            "NORMAL": 1,
            "POSITION": 0,
            "TANGENT": 2,
            "TEXCOORD_0": 3,
            "TEXCOORD_1": 4,
            "TEXCOORD_2": 5,
            "TEXCOORD_3": 6,
            "TEXCOORD_4": 7,
            "TEXCOORD_5": 8
          },
          "indices": 9,
          "material": 0,
          "mode": 4
        }
      ]
    }
  ],
  "nodes": [
    {
      "children": [
        1
      ],
      "name": "RootNode (gltf orientation matrix)",
      "rotation": [
        -0.70710678118654746,
        -0,
        -0,
        0.70710678118654757
      ]
    },
    {
      "children": [
        2
      ],
      "name": "RootNode (model correction matrix)"
    },
    {
      "children": [
        3
      ],
      "matrix": [
        1,
        0,
        0,
        0,
        0,
        0,
        1,
        0,
        0,
        -1,
        0,
        0,
        0,
        0,
        0,
        1
      ],
      "name": "Wasp_FIN.fbx"
    },
    {
      "children": [
        4
      ],
      "name": "RootNode"
    },
    {
      "children": [
        5
      ],
      "name": "pCube380"
    },
    {
      "mesh": 0,
      "name": "pCube380_StingrayPBS1_0"
    }
  ],
  "samplers": [
    {
      "magFilter": 9729,
      "minFilter": 9987,
      "wrapS": 10497,
      "wrapT": 10497
    }
  ],
  "scene": 0,
  "scenes": [
    {
      "name": "OSG_Scene",
      "nodes": [
        0
      ]
    }
  ],
  "textures": [
    {
      "sampler": 0,
      "source": 0
    },
    {
      "sampler": 0,
      "source": 1
    },
    {
      "sampler": 0,
      "source": 2
    },
    {
      "sampler": 0,
      "source": 3
    }
  ]
}

